<svg width="29" height="23" viewBox="0 0 29 23" fill="none" xmlns="http://www.w3.org/2000/svg">
<path d="M28.01 2.74935C27.0154 3.20143 25.9433 3.49852 24.8325 3.6406C25.9691 2.95602 26.8475 1.87102 27.2608 0.566432C26.1887 1.21227 25.0004 1.66435 23.7474 1.92268C22.727 0.811849 21.2933 0.166016 19.6658 0.166016C16.6304 0.166016 14.1504 2.64602 14.1504 5.70727C14.1504 6.14643 14.202 6.57268 14.2924 6.9731C9.69412 6.7406 5.59953 4.53185 2.87411 1.18643C2.3962 2.00018 2.12495 2.95602 2.12495 3.96352C2.12495 5.8881 3.0937 7.5931 4.59203 8.56185C3.67495 8.56185 2.82245 8.30352 2.07328 7.91602V7.95477C2.07328 10.6414 3.98495 12.8889 6.51662 13.3927C5.7038 13.6151 4.85049 13.6461 4.0237 13.4831C4.37452 14.5842 5.0616 15.5477 5.98835 16.2381C6.91509 16.9286 8.0349 17.3112 9.19037 17.3323C7.23172 18.8828 4.80386 19.721 2.30578 19.7089C1.86661 19.7089 1.42745 19.6831 0.988281 19.6314C3.44245 21.2073 6.36162 22.1243 9.48745 22.1243C19.6658 22.1243 25.2587 13.6768 25.2587 6.3531C25.2587 6.10768 25.2587 5.87518 25.2458 5.62977C26.3308 4.85477 27.2608 3.8731 28.01 2.74935Z" fill="#969696"/>
</svg>
