<svg width="10" height="18" viewBox="0 0 10 18" fill="none" xmlns="http://www.w3.org/2000/svg">
<path d="M9.76388 8.29391L1.27983 0.21023C1.13827 0.0752812 0.950198 0 0.754622 0C0.559044 0 0.370973 0.0752812 0.229412 0.21023L0.220277 0.219364C0.151414 0.284784 0.0965796 0.36353 0.0591087 0.450811C0.0216379 0.538091 0.00231457 0.632083 0.00231457 0.727067C0.00231457 0.822052 0.0216379 0.916043 0.0591087 1.00332C0.0965796 1.09061 0.151414 1.16935 0.220277 1.23477L8.20956 8.84652L0.220277 16.4552C0.151414 16.5206 0.0965796 16.5994 0.0591087 16.6867C0.0216379 16.774 0.00231457 16.8679 0.00231457 16.9629C0.00231457 17.0579 0.0216379 17.1519 0.0591087 17.2392C0.0965796 17.3265 0.151414 17.4052 0.220277 17.4706L0.229412 17.4798C0.370973 17.6147 0.559044 17.69 0.754622 17.69C0.950198 17.69 1.13827 17.6147 1.27983 17.4798L9.76388 9.39609C9.8385 9.325 9.8979 9.2395 9.93848 9.14477C9.97907 9.05004 10 8.94806 10 8.845C10 8.74194 9.97907 8.63996 9.93848 8.54523C9.8979 8.4505 9.8385 8.365 9.76388 8.29391Z" fill="#FD9330"/>
</svg>
