<svg width="9" height="14" viewBox="0 0 9 14" fill="none" xmlns="http://www.w3.org/2000/svg">
<path d="M8.53212 6.44196L1.96645 0.186131C1.8569 0.0816964 1.71135 0.0234375 1.56 0.0234375C1.40865 0.0234375 1.2631 0.0816964 1.15355 0.186131L1.14648 0.193199C1.09319 0.243827 1.05075 0.304767 1.02175 0.372312C0.992755 0.439858 0.977801 0.512596 0.977801 0.586103C0.977801 0.65961 0.992755 0.732348 1.02175 0.799893C1.05075 0.867439 1.09319 0.928379 1.14648 0.979006L7.32926 6.86962L1.14648 12.7579C1.09319 12.8085 1.05075 12.8694 1.02175 12.937C0.992755 13.0045 0.977801 13.0773 0.977801 13.1508C0.977801 13.2243 0.992755 13.297 1.02175 13.3646C1.05075 13.4321 1.09319 13.493 1.14648 13.5437L1.15355 13.5507C1.2631 13.6552 1.40865 13.7134 1.56 13.7134C1.71135 13.7134 1.8569 13.6552 1.96645 13.5507L8.53212 7.29492C8.58986 7.2399 8.63583 7.17373 8.66724 7.10043C8.69865 7.02712 8.71484 6.94819 8.71484 6.86844C8.71484 6.78868 8.69865 6.70976 8.66724 6.63645C8.63583 6.56314 8.58986 6.49697 8.53212 6.44196Z" fill="#FD9330"/>
</svg>
